<?xml version="1.0" standalone="no"?>
<!DOCTYPE svg PUBLIC "-//W3C//DTD SVG 20010904//EN"
 "http://www.w3.org/TR/2001/REC-SVG-20010904/DTD/svg10.dtd">
<svg version="1.0" xmlns="http://www.w3.org/2000/svg"
 width="173.000000pt" height="155.000000pt" viewBox="0 0 173.000000 155.000000"
 preserveAspectRatio="xMidYMid meet">

<g transform="translate(0.000000,155.000000) scale(0.100000,-0.100000)"
fill="#000000" stroke="none">
<path d="M1513 1423 l-213 -125 0 -175 c0 -175 0 -175 25 -195 25 -19 25 -20
25 -186 l0 -166 -47 45 c-27 25 -104 95 -173 154 -69 60 -171 151 -227 203
l-103 94 -27 -33 c-15 -18 -59 -65 -98 -104 -38 -39 -82 -85 -97 -103 -27 -31
-27 -31 -8 -45 11 -8 129 -120 263 -249 133 -129 271 -260 306 -291 119 -106
242 -115 381 -28 25 16 65 41 89 56 l43 27 -34 36 -34 37 -2 115 -2 115 20
-25 c11 -14 42 -53 68 -88 l47 -64 7 449 c5 246 7 498 5 559 l-2 112 -212
-125z"/>
<path d="M140 1038 l0 -113 -28 34 c-15 19 -46 62 -69 95 l-43 60 0 -548 0
-548 22 14 c13 8 105 61 205 118 l183 104 0 168 c0 141 -2 170 -15 174 -13 5
-15 35 -15 179 l0 173 -114 101 c-62 56 -116 101 -120 101 -3 0 -6 -51 -6
-112z"/>
</g>
</svg>
