<?xml version="1.0" encoding="UTF-8"?>
<svg version="1.1" xmlns="http://www.w3.org/2000/svg" width="173" height="155">
<path d="M0 0 C0.02323021 13.61343142 0.04096937 27.22685808 0.05181217 40.84030533 C0.0570177 47.16242425 0.0640728 53.48452954 0.07543945 59.80664062 C0.08635142 65.91448855 0.09229438 72.02232343 0.09487724 78.13018036 C0.09671656 80.45361283 0.10030817 82.77704463 0.10573006 85.1004715 C0.11305092 88.36940523 0.11398632 91.63828587 0.11352539 94.90722656 C0.11712067 95.85526154 0.12071594 96.80329651 0.12442017 97.78005981 C0.09342228 118.26386939 0.09342228 118.26386939 -4.296875 123.46630859 C-7.83882648 126.65589277 -11.87015826 128.96926371 -16 131.3125 C-16.88945312 131.83650391 -17.77890625 132.36050781 -18.6953125 132.90039062 C-28.60321443 138.67507078 -36.95033802 140.35157289 -48.40625 138.640625 C-53.6835413 137.04013502 -57.38950747 133.28432058 -61.3125 129.546875 C-63.44705694 127.52400999 -65.6081931 125.5823515 -67.828125 123.65625 C-71.89570793 120.1166523 -75.83228702 116.45392237 -79.75 112.75 C-85.44106904 107.39125616 -91.16903448 102.07970121 -96.94140625 96.80859375 C-100.48462984 93.56443552 -103.99155158 90.28166826 -107.5 87 C-112.15240063 82.65108123 -116.81115896 78.30964081 -121.5 74 C-122.84578125 72.7625 -122.84578125 72.7625 -124.21875 71.5 C-127.43289902 68.61087728 -130.70666188 65.79813545 -134 63 C-134.24958923 67.10670286 -134.42969478 71.21040651 -134.54931641 75.32299805 C-134.59922342 76.71733551 -134.66718831 78.11115978 -134.75439453 79.50366211 C-135.34354776 88.12297508 -135.34354776 88.12297508 -131.93383789 95.81176758 C-129.39922542 98.10403989 -126.81759825 100.07066244 -124 102 C-122.92033324 102.88956574 -121.84888451 103.78939874 -120.79296875 104.70703125 C-119.93316406 105.40183594 -119.07335937 106.09664063 -118.1875 106.8125 C-117.31480469 107.52019531 -116.44210938 108.22789063 -115.54296875 108.95703125 C-113.031379 110.97479076 -110.51705726 112.98906556 -108 115 C-109.45249585 118.73534598 -111.12064806 119.95037566 -114.63671875 121.77734375 C-115.59529785 122.28434814 -116.55387695 122.79135254 -117.54150391 123.3137207 C-118.57968262 123.84956787 -119.61786133 124.38541504 -120.6875 124.9375 C-122.87730838 126.09445151 -125.06608487 127.25335791 -127.25390625 128.4140625 C-128.3742627 129.00606445 -129.49461914 129.59806641 -130.64892578 130.20800781 C-135.85544729 132.99220335 -140.992377 135.89489164 -146.125 138.8125 C-147.07616699 139.35148926 -148.02733398 139.89047852 -149.00732422 140.44580078 C-153.17511603 142.81126487 -157.33518407 145.18905279 -161.48046875 147.59375 C-162.13837402 147.97426514 -162.7962793 148.35478027 -163.47412109 148.74682617 C-165.16885745 149.72923311 -166.85999129 150.71784774 -168.55078125 151.70703125 C-171 153 -171 153 -173 153 C-173.09350894 138.10955576 -173.16401128 123.2191343 -173.20724869 108.32845879 C-173.22785969 101.41418508 -173.25595198 94.50009399 -173.30175781 87.5859375 C-173.34593785 80.91399752 -173.36913472 74.24228649 -173.37950897 67.57019424 C-173.38690258 65.0240696 -173.40134041 62.4779554 -173.42292023 59.93191147 C-173.45193564 56.36697661 -173.45595661 52.80282682 -173.45410156 49.23779297 C-173.46848267 48.18402969 -173.48286377 47.13026642 -173.49768066 46.04457092 C-173.46377651 40.0274215 -172.99002159 36.59488971 -169 32 C-159.94232492 23.62767048 -143.66689454 14.1683391 -131.23046875 13.671875 C-125.31810274 14.54164513 -121.2163585 18.31030898 -117.0625 22.3125 C-116.50675293 22.83666504 -115.95100586 23.36083008 -115.37841797 23.90087891 C-114.1910293 25.02096352 -113.00619349 26.14375963 -111.82373047 27.26904297 C-109.39581488 29.57345014 -106.94572696 31.85354925 -104.49536133 34.1340332 C-102.60416561 35.89439304 -100.71571852 37.6576536 -98.828125 39.421875 C-97.88163086 40.30649414 -97.88163086 40.30649414 -96.91601562 41.20898438 C-95.63867188 42.40299479 -94.36132812 43.59700521 -93.08398438 44.79101562 C-86.04622829 51.36869368 -78.99859243 57.93466077 -71.91357422 64.46142578 C-67.12887076 68.87257508 -62.37316656 73.31440032 -57.61889648 77.75830078 C-51.43759059 83.53267675 -45.22280085 89.27040596 -39 95 C-36.68212483 77.45262161 -36.68212483 77.45262161 -41.73046875 61.49609375 C-44.56450597 58.64677653 -47.73496929 56.36594597 -51.12255859 54.21728516 C-53.99775892 52.35307855 -56.51261637 50.15396081 -59.125 47.9375 C-60.39730469 46.93009766 -60.39730469 46.93009766 -61.6953125 45.90234375 C-63.95239255 44.03929632 -66.03891112 42.17346486 -68 40 C-68 39.34 -68 38.68 -68 38 C-53.25443369 29.47440862 -38.49282729 20.97833482 -23.69433594 12.54492188 C-22.05513184 11.6100293 -22.05513184 11.6100293 -20.3828125 10.65625 C-19.32868164 10.05554687 -18.27455078 9.45484375 -17.18847656 8.8359375 C-12.88523848 6.35811588 -8.61926966 3.81829969 -4.35888672 1.26757812 C-2 0 -2 0 0 0 Z " fill="#088546" transform="translate(173,0)"/>
<path d="M0 0 C0.02316981 13.71705581 0.0409388 27.43410697 0.05181217 41.15117836 C0.05703082 47.52055172 0.06411006 53.88991169 0.07543945 60.25927734 C0.08630441 66.40600084 0.09228451 72.55271146 0.09487724 78.69944382 C0.09672497 81.04458189 0.10033308 83.38971925 0.10573006 85.73485184 C0.11298831 89.01937636 0.11398891 92.30384765 0.11352539 95.58837891 C0.11712067 96.55798553 0.12071594 97.52759216 0.12442017 98.52658081 C0.11738295 103.13463993 -0.04883941 107.46659484 -1 112 C-5.56282947 107.77041089 -9.04097469 103.00668649 -12.625 97.9375 C-13.76279209 96.34228474 -14.9008054 94.74722724 -16.0390625 93.15234375 C-16.53615723 92.45101318 -17.03325195 91.74968262 -17.54541016 91.02709961 C-18.55849888 89.61527087 -19.60833672 88.22939903 -20.68505859 86.86547852 C-22 85 -22 85 -22 83 C-22.66 83 -23.32 83 -24 83 C-23.67 92.24 -23.34 101.48 -23 111 C-29 106 -29 106 -29.875 103.1875 C-29.91625 102.465625 -29.9575 101.74375 -30 101 C-30.99 101.33 -31.98 101.66 -33 102 C-35.67407227 101.00341797 -35.67407227 101.00341797 -38 99 C-38.43725586 95.83642578 -38.43725586 95.83642578 -38.21484375 91.9453125 C-38.16623612 90.51706303 -38.12195539 89.08866109 -38.08154297 87.66015625 C-38.05525818 86.91781738 -38.02897339 86.17547852 -38.00189209 85.41064453 C-37.29858185 72.67316131 -37.29858185 72.67316131 -41.77734375 61.2421875 C-44.58235266 58.40872942 -47.72863697 56.20281013 -51.13867188 54.15283203 C-54.04649779 52.35184122 -56.52322509 50.1560405 -59.125 47.9375 C-60.39730469 46.93009766 -60.39730469 46.93009766 -61.6953125 45.90234375 C-63.95239255 44.03929632 -66.03891112 42.17346486 -68 40 C-68 39.34 -68 38.68 -68 38 C-53.25443369 29.47440862 -38.49282729 20.97833482 -23.69433594 12.54492188 C-22.05513184 11.6100293 -22.05513184 11.6100293 -20.3828125 10.65625 C-19.32868164 10.05554687 -18.27455078 9.45484375 -17.18847656 8.8359375 C-12.88523848 6.35811588 -8.61926966 3.81829969 -4.35888672 1.26757812 C-2 0 -2 0 0 0 Z " fill="#095D31" transform="translate(173,0)"/>
<path d="M0 0 C3.914344 1.957172 6.62455528 4.22634148 9.75 7.1875 C10.74381594 8.11953109 11.73862703 9.05050206 12.734375 9.98046875 C13.24468262 10.47772461 13.75499023 10.97498047 14.28076172 11.48730469 C15.9949295 13.078321 15.9949295 13.078321 18.16064453 14.34863281 C20.70451627 16.067815 22.28933589 17.43321284 24 20 C25.00342609 26.18563912 24.58537569 32.3690963 24.2578125 38.60644531 C23.65268814 47.71094797 23.65268814 47.71094797 27.06225586 55.87475586 C29.5953394 58.16553417 32.16550549 60.10028559 35 62 C36.08090718 62.8880581 37.15262831 63.78766084 38.20703125 64.70703125 C39.06683594 65.40183594 39.92664062 66.09664063 40.8125 66.8125 C41.68519531 67.52019531 42.55789062 68.22789063 43.45703125 68.95703125 C45.968621 70.97479076 48.48294274 72.98906556 51 75 C49.54750415 78.73534598 47.87935194 79.95037566 44.36328125 81.77734375 C43.40470215 82.28434814 42.44612305 82.79135254 41.45849609 83.3137207 C40.42031738 83.84956787 39.38213867 84.38541504 38.3125 84.9375 C36.12269162 86.09445151 33.93391513 87.25335791 31.74609375 88.4140625 C30.6257373 89.00606445 29.50538086 89.59806641 28.35107422 90.20800781 C23.14455271 92.99220335 18.007623 95.89489164 12.875 98.8125 C11.92383301 99.35148926 10.97266602 99.89047852 9.99267578 100.44580078 C5.82488397 102.81126487 1.66481593 105.18905279 -2.48046875 107.59375 C-3.13837402 107.97426514 -3.7962793 108.35478027 -4.47412109 108.74682617 C-6.16885745 109.72923311 -7.85999129 110.71784774 -9.55078125 111.70703125 C-12 113 -12 113 -14 113 C-14 77.36 -14 41.72 -14 5 C-8.91161543 10.08838457 -5.15573846 15.15379166 -1 21 C-0.67 14.07 -0.34 7.14 0 0 Z " fill="#095D31" transform="translate(14,40)"/>
<path d="M0 0 C0.71800781 0.57492188 1.43601562 1.14984375 2.17578125 1.7421875 C3.96076136 3.16918405 5.74936781 4.59166675 7.54296875 6.0078125 C13.27568644 10.59737378 18.54156314 15.41665897 23.671875 20.66796875 C25.6961537 22.6956439 27.75775667 24.58117387 29.9375 26.4375 C34.23133013 30.10677302 38.15136612 34.11886892 42.09375 38.15625 C44.8953977 40.96137369 47.87635692 43.53583141 50.87207031 46.13037109 C54.53921927 49.35237966 58.07768599 52.70977786 61.625 56.0625 C62.34945312 56.74376953 63.07390625 57.42503906 63.8203125 58.12695312 C67.94891299 62.01995413 72.00954866 65.96549005 76 70 C75.67 70.66 75.34 71.32 75 72 C74.2265625 71.21496094 73.453125 70.42992188 72.65625 69.62109375 C71.60430616 68.55975756 70.5522148 67.49856757 69.5 66.4375 C68.9946875 65.92380859 68.489375 65.41011719 67.96875 64.88085938 C64.46448546 61.35469318 60.81648537 58.0569619 57.05712891 54.80541992 C52.90219395 51.15888016 48.92361641 47.3201928 44.91210938 43.51757812 C41.77070954 40.55324456 38.61372447 37.63838081 35.31640625 34.84765625 C32.39063546 32.36811931 29.67415374 29.75267702 27 27 C25.23215275 25.18458736 23.46122937 23.372166 21.6875 21.5625 C20.80449219 20.65628906 19.92148437 19.75007813 19.01171875 18.81640625 C15.5773424 15.60475211 11.76167309 12.82125482 8 10 C8 17.26 8 24.52 8 32 C4.42565894 28.42565894 1.27975846 25.07365508 -1.8125 21.125 C-2.60269531 20.13757813 -3.39289063 19.15015625 -4.20703125 18.1328125 C-6.34161295 14.40310765 -6.48264459 12.23433557 -6 8 C-4.24505919 4.89960457 -2.51174333 2.51174333 0 0 Z " fill="#05AF5B" transform="translate(6,30)"/>
<path d="M0 0 C1.12956998 0.76412087 2.25348978 1.53659803 3.375 2.3125 C4.00148437 2.74175781 4.62796875 3.17101562 5.2734375 3.61328125 C7 5 7 5 9 8 C9.22705078 10.72729492 9.22705078 10.72729492 9.1953125 13.98046875 C9.18564453 15.72553711 9.18564453 15.72553711 9.17578125 17.50585938 C9.15902344 18.72080078 9.14226562 19.93574219 9.125 21.1875 C9.11597656 22.41404297 9.10695312 23.64058594 9.09765625 24.90429688 C9.07406017 27.93639295 9.04113841 30.96809938 9 34 C7.3125 35.1875 7.3125 35.1875 5 36 C2.28051758 35.09448242 2.28051758 35.09448242 0 33 C-0.45760061 30.28332853 -0.58717896 28.19522255 -0.48828125 25.48828125 C-0.47766914 24.39594429 -0.47766914 24.39594429 -0.46684265 23.28153992 C-0.43887081 20.95747763 -0.3761365 18.6358327 -0.3125 16.3125 C-0.28742031 14.73636295 -0.26460655 13.16018809 -0.24414062 11.58398438 C-0.18903626 7.72172602 -0.10275228 3.86127268 0 0 Z " fill="#0C391F" transform="translate(135,66)"/>
<path d="M0 0 C3.56902693 3.4549195 6.75932486 7.00330915 9.8125 10.9375 C10.99779297 12.43603516 10.99779297 12.43603516 12.20703125 13.96484375 C14.23504002 17.3978782 14.5714595 19.08523538 14 23 C12.90625 25.1171875 12.90625 25.1171875 11.5 26.875 C11.0359375 27.47054687 10.571875 28.06609375 10.09375 28.6796875 C9.55234375 29.33324219 9.55234375 29.33324219 9 30 C5.17836093 28.44303593 2.81381505 25.96591316 0 23 C-0.33 22.67 -0.66 22.34 -1 22 C-1.09899523 20.45044441 -1.13079524 18.89646327 -1.1328125 17.34375 C-1.13410156 16.40402344 -1.13539063 15.46429688 -1.13671875 14.49609375 C-1.13285156 13.50738281 -1.12898437 12.51867187 -1.125 11.5 C-1.12886719 10.51128906 -1.13273438 9.52257812 -1.13671875 8.50390625 C-1.13542969 7.56417969 -1.13414062 6.62445313 -1.1328125 5.65625 C-1.13168457 4.78806641 -1.13055664 3.91988281 -1.12939453 3.02539062 C-1 1 -1 1 0 0 Z " fill="#05BA61" transform="translate(158,95)"/>
<path d="M0 0 C8.20382185 4.07292216 8.20382185 4.07292216 10 7 C10.61224723 11.80885326 10.24012496 16.49140927 9.875 21.3125 C9.80023438 22.62541016 9.72546875 23.93832031 9.6484375 25.29101562 C9.45998216 28.53009183 9.24289881 31.76462592 9 35 C4.24112113 30.64902503 -0.56022076 25.97164413 -1.29931641 19.296875 C-1.26884749 16.33989186 -1.08107352 13.44464781 -0.8125 10.5 C-0.74224609 9.48679687 -0.67199219 8.47359375 -0.59960938 7.4296875 C-0.42417462 4.95020961 -0.2238548 2.47549561 0 0 Z " fill="#088345" transform="translate(14,40)"/>
<path d="M0 0 C2.96337891 1.52441406 2.96337891 1.52441406 6 4 C6.5534942 6.83055745 6.71010733 8.79784706 6.5859375 11.609375 C6.57744781 12.33618469 6.56895813 13.06299438 6.56021118 13.81182861 C6.52670601 16.12608121 6.45144932 18.43680705 6.375 20.75 C6.34489589 22.32156413 6.31752083 23.89318308 6.29296875 25.46484375 C6.2269265 29.31124813 6.12343921 33.15502691 6 37 C0.19860478 33.02199601 0.19860478 33.02199601 -0.68115234 28.49487305 C-0.64973145 27.18043213 -0.61831055 25.86599121 -0.5859375 24.51171875 C-0.57744781 23.80852005 -0.56895813 23.10532135 -0.56021118 22.3808136 C-0.52678324 20.14810955 -0.45154502 17.91910021 -0.375 15.6875 C-0.34488573 14.1686722 -0.31751245 12.64978741 -0.29296875 11.13085938 C-0.22703363 7.41938466 -0.1235945 3.71005327 0 0 Z " fill="#0D190E" transform="translate(32,56)"/>
<path d="M0 0 C3.26498328 2.08337028 6.03170516 4.46903362 8.80859375 7.14453125 C9.36434082 7.66869629 9.92008789 8.19286133 10.49267578 8.73291016 C11.68006445 9.85299477 12.86490026 10.97579088 14.04736328 12.10107422 C16.47527887 14.40548139 18.92536679 16.6855805 21.37573242 18.96606445 C23.26692814 20.72642429 25.15537523 22.48968485 27.04296875 24.25390625 C27.67396484 24.84365234 28.30496094 25.43339844 28.95507812 26.04101562 C30.23242188 27.23502604 31.50976562 28.42903646 32.78710938 29.62304688 C34.05958289 30.81233519 35.33220607 32.00146339 36.60498047 33.19042969 C37.8569583 34.35997676 39.10859096 35.52989346 40.35986328 36.70019531 C43.42423636 39.56286897 46.49929797 42.41239576 49.59765625 45.23828125 C50.1911084 45.78081543 50.78456055 46.32334961 51.39599609 46.88232422 C52.51080335 47.89994477 53.62814837 48.91479523 54.74853516 49.92626953 C57.43988427 52.3848721 59.80736031 54.82124206 61.87109375 57.83203125 C59.03468435 56.53488107 56.91182259 55.14396127 54.65625 52.99609375 C54.05925293 52.4326123 53.46225586 51.86913086 52.84716797 51.28857422 C52.21568848 50.68416504 51.58420898 50.07975586 50.93359375 49.45703125 C49.58365569 48.18064856 48.23338964 46.90461269 46.8828125 45.62890625 C46.20782715 44.98888672 45.5328418 44.34886719 44.83740234 43.68945312 C41.99542412 41.00485289 39.12317808 38.35389581 36.24609375 35.70703125 C35.18095293 34.72530018 34.11584869 33.74352943 33.05078125 32.76171875 C32.52709961 32.27928711 32.00341797 31.79685547 31.46386719 31.29980469 C29.30761413 29.3127732 27.15303544 27.32393311 24.99902344 25.33447266 C23.91979397 24.33843514 22.83972463 23.34330683 21.75878906 22.34912109 C18.95636297 19.76963452 16.17155609 17.17418862 13.41015625 14.55078125 C12.55260742 13.74253906 12.55260742 13.74253906 11.67773438 12.91796875 C10.59565551 11.89747161 9.51840789 10.87181436 8.44726562 9.83984375 C4.11626839 5.77286321 -1.09077731 1.28158968 -7.31640625 1.20703125 C-12.70261437 1.4113357 -16.9884957 3.96145991 -21.625 6.51953125 C-24.12890625 7.83203125 -24.12890625 7.83203125 -26.12890625 7.83203125 C-26.12890625 7.17203125 -26.12890625 6.51203125 -26.12890625 5.83203125 C-23.80400105 4.64536089 -21.47131166 3.48323239 -19.12890625 2.33203125 C-18.48050781 1.99816406 -17.83210938 1.66429687 -17.1640625 1.3203125 C-11.21943539 -1.56371451 -6.40078074 -2.38930517 0 0 Z " fill="#CEEBDD" transform="translate(47.12890625,15.16796875)"/>
<path d="M0 0 C1.65 1.65 3.3 3.3 5 5 C4.34 5 3.68 5 3 5 C3 11.6 3 18.2 3 25 C-5.82978723 16.17021277 -5.82978723 16.17021277 -6.5 11.5625 C-5.79406161 6.53268897 -3.53695405 3.53695405 0 0 Z " fill="#03D16C" transform="translate(6,30)"/>
<path d="M0 0 C1.95141602 0.72705078 1.95141602 0.72705078 4 2 C6.16922719 8.79335158 4.95088876 17.10721691 4.5625 24.125 C4.51029297 25.176875 4.45808594 26.22875 4.40429688 27.3125 C4.2761511 29.8754155 4.14127766 32.43778064 4 35 C1.47411298 32.63707344 0.11179163 31.33537489 -1 28 C-1.01597151 25.86035593 -0.96597134 23.71996285 -0.87890625 21.58203125 C-0.83056641 20.32841797 -0.78222656 19.07480469 -0.73242188 17.78320312 C-0.67634766 16.47287109 -0.62027344 15.16253906 -0.5625 13.8125 C-0.50925765 12.4772337 -0.4565174 11.14194728 -0.40429688 9.80664062 C-0.27447654 6.53752856 -0.13950464 3.26871081 0 0 Z " fill="#0B3B1F" transform="translate(28,53)"/>
<path d="M0 0 C1.32 0.99 2.64 1.98 4 3 C4.45410156 6.1862793 4.45410156 6.1862793 4.390625 10.07421875 C4.38496521 10.7580513 4.37930542 11.44188385 4.37347412 12.1464386 C4.35110816 14.32750899 4.30091765 16.50692753 4.25 18.6875 C4.229935 20.16729395 4.21168422 21.6471137 4.1953125 23.12695312 C4.15124474 26.7518376 4.08221822 30.37575756 4 34 C2.68 33.34 1.36 32.68 0 32 C0 21.44 0 10.88 0 0 Z " fill="#0D1C10" transform="translate(135,66)"/>
<path d="M0 0 C1.32 0.66 2.64 1.32 4 2 C4 10.58 4 19.16 4 28 C-1 23 -1 23 -1.47583008 20.32104492 C-1.40775146 19.38365479 -1.33967285 18.44626465 -1.26953125 17.48046875 C-1.20830078 16.45888672 -1.14707031 15.43730469 -1.08398438 14.38476562 C-0.99439453 13.32966797 -0.90480469 12.27457031 -0.8125 11.1875 C-0.74224609 10.11306641 -0.67199219 9.03863281 -0.59960938 7.93164062 C-0.42317962 5.28519427 -0.22259652 2.64289709 0 0 Z " fill="#06A053" transform="translate(14,40)"/>
<path d="M0 0 C6 6 6 6 6.375 8.625 C5.88882004 13.0006196 4.06376616 15.86196072 1 19 C0.34 19 -0.32 19 -1 19 C-1.02683987 16.02077407 -1.04676037 13.04178705 -1.0625 10.0625 C-1.07087891 9.21236328 -1.07925781 8.36222656 -1.08789062 7.48632812 C-1.09111328 6.67744141 -1.09433594 5.86855469 -1.09765625 5.03515625 C-1.10289307 4.2862915 -1.10812988 3.53742676 -1.11352539 2.76586914 C-1 1 -1 1 0 0 Z " fill="#03DB71" transform="translate(166,106)"/>
<path d="M0 0 C3.48654476 1.4841373 5.64191072 3.46214052 8.25 6.1875 C11.62560521 9.70478207 15.16573635 12.91721219 18.84570312 16.10620117 C22.52099844 19.33707898 26.06897646 22.7015461 29.625 26.0625 C30.34945312 26.74376953 31.07390625 27.42503906 31.8203125 28.12695312 C35.94891299 32.01995413 40.00954866 35.96549005 44 40 C43.505 40.99 43.505 40.99 43 42 C42.2265625 41.21496094 41.453125 40.42992187 40.65625 39.62109375 C39.60430616 38.55975756 38.5522148 37.49856757 37.5 36.4375 C36.9946875 35.92380859 36.489375 35.41011719 35.96875 34.88085938 C32.46448546 31.35469318 28.81648537 28.0569619 25.05712891 24.80541992 C20.90219395 21.15888016 16.92361641 17.3201928 12.91210938 13.51757812 C9.12986878 9.94852505 5.30000806 6.51335842 1.25219727 3.24633789 C0.83897217 2.83504639 0.42574707 2.42375488 0 2 C0 1.34 0 0.68 0 0 Z " fill="#BAE9D2" transform="translate(38,60)"/>
<path d="M0 0 C1.32 0.99 2.64 1.98 4 3 C3.67 3.99 3.34 4.98 3 6 C2.9166196 8.13794525 2.89266253 10.27842009 2.90234375 12.41796875 C2.90556641 13.67158203 2.90878906 14.92519531 2.91210938 16.21679688 C2.92048828 17.52712891 2.92886719 18.83746094 2.9375 20.1875 C2.94251683 21.52278481 2.94707941 22.85807141 2.95117188 24.19335938 C2.96297305 27.46228473 2.97943703 30.73111991 3 34 C2.01 33.34 1.02 32.68 0 32 C-0.26727014 29.51659097 -0.34866334 27.28527932 -0.29296875 24.8046875 C-0.28872391 24.09724396 -0.28447906 23.38980042 -0.28010559 22.66091919 C-0.26329547 20.39856095 -0.22564128 18.13708952 -0.1875 15.875 C-0.17245607 14.34246077 -0.15876716 12.8099076 -0.14648438 11.27734375 C-0.11338462 7.51788682 -0.06158825 3.75909382 0 0 Z " fill="#0C2C18" transform="translate(32,56)"/>
<path d="M0 0 C0.66 0 1.32 0 2 0 C3.625 2.5 3.625 2.5 5 5 C4.67 5.33 4.34 5.66 4 6 C3.91286169 7.70772358 3.89299993 9.41898649 3.90234375 11.12890625 C3.90556641 12.16337891 3.90878906 13.19785156 3.91210938 14.26367188 C3.92048828 15.35228516 3.92886719 16.44089844 3.9375 17.5625 C3.94201172 18.65498047 3.94652344 19.74746094 3.95117188 20.87304688 C3.96300174 23.58208495 3.97948457 26.29101599 4 29 C3.01 29 2.02 29 1 29 C0.1589522 25.3535194 -0.11764968 22.00049093 -0.09765625 18.26171875 C-0.09443359 17.19501953 -0.09121094 16.12832031 -0.08789062 15.02929688 C-0.07951172 13.92650391 -0.07113281 12.82371094 -0.0625 11.6875 C-0.05798828 10.56537109 -0.05347656 9.44324219 -0.04882812 8.28710938 C-0.03707313 5.5246849 -0.02064077 2.76237002 0 0 Z " fill="#08743D" transform="translate(149,83)"/>
<path d="M0 0 C4.42301947 2.88850251 8.21155183 6.39722404 12.0625 10 C11.7325 10.99 11.4025 11.98 11.0625 13 C10.42634766 12.31164062 10.42634766 12.31164062 9.77734375 11.609375 C4.87059218 6.47615797 0.30193518 1.97718393 -7.125 1.375 C-12.51120812 1.57930445 -16.79708945 4.12942866 -21.43359375 6.6875 C-23.9375 8 -23.9375 8 -25.9375 8 C-25.9375 7.34 -25.9375 6.68 -25.9375 6 C-23.6125948 4.81332964 -21.27990541 3.65120114 -18.9375 2.5 C-18.28910156 2.16613281 -17.64070313 1.83226562 -16.97265625 1.48828125 C-11.2113813 -1.30679274 -6.24077596 -2.12451948 0 0 Z " fill="#1DF089" transform="translate(46.9375,15)"/>
<path d="M0 0 C1.32488714 2.64977429 0.95401517 4.37287745 0.6875 7.3125 C0.60886719 8.25738281 0.53023438 9.20226563 0.44921875 10.17578125 C-0.00523098 13.03288694 -0.82452304 15.36597205 -2 18 C-4 16.9375 -4 16.9375 -6 15 C-6.65807812 10.64023242 -6.3066731 8.54178914 -4.125 4.6875 C-2 2 -2 2 0 0 Z " fill="#02E275" transform="translate(6,30)"/>
<path d="M0 0 C1.49536133 1.1809082 1.49536133 1.1809082 3 3 C3.2487793 5.36010742 3.2487793 5.36010742 3.07421875 8.10546875 C3.01943359 9.08837891 2.96464844 10.07128906 2.90820312 11.08398438 C2.83537109 12.10814453 2.76253906 13.13230469 2.6875 14.1875 C2.62626953 15.22326172 2.56503906 16.25902344 2.50195312 17.32617188 C2.34864013 19.88531957 2.1807893 22.44267045 2 25 C-0.08933561 23.30991367 -0.92935937 22.44639074 -1.35644531 19.74755859 C-1.34709961 18.88984863 -1.33775391 18.03213867 -1.328125 17.1484375 C-1.32296875 16.21515625 -1.3178125 15.281875 -1.3125 14.3203125 C-1.291875 13.34835938 -1.27125 12.37640625 -1.25 11.375 C-1.24484375 10.3953125 -1.2396875 9.415625 -1.234375 8.40625 C-1.15401786 1.15401786 -1.15401786 1.15401786 0 0 Z " fill="#05A757" transform="translate(158,95)"/>
<path d="M0 0 C0.66 0 1.32 0 2 0 C2 10.56 2 21.12 2 32 C-1 29 -1 29 -1.2487793 25.99731445 C-1.19117432 24.7980835 -1.13356934 23.59885254 -1.07421875 22.36328125 C-1.01943359 21.06455078 -0.96464844 19.76582031 -0.90820312 18.42773438 C-0.83497036 17.05597166 -0.7613983 15.68422702 -0.6875 14.3125 C-0.62422838 12.92910079 -0.56236272 11.54563651 -0.50195312 10.16210938 C-0.3484777 6.7738442 -0.18058886 3.38691079 0 0 Z " fill="#0A4826" transform="translate(28,53)"/>
<path d="M0 0 C0.99 0.33 1.98 0.66 3 1 C2.67 10.24 2.34 19.48 2 29 C-1 26 -1 26 -1.2487793 23.27270508 C-1.19117432 22.19915771 -1.13356934 21.12561035 -1.07421875 20.01953125 C-1.01943359 18.85615234 -0.96464844 17.69277344 -0.90820312 16.49414062 C-0.83537109 15.27919922 -0.76253906 14.06425781 -0.6875 12.8125 C-0.62626953 11.58595703 -0.56503906 10.35941406 -0.50195312 9.09570312 C-0.34853758 6.06279578 -0.18066191 3.03138658 0 0 Z " fill="#09743D" transform="translate(21,46)"/>
<path d="M0 0 C2.90854122 1.32238871 5.04782741 2.77401363 7.35546875 4.9765625 C7.97413818 5.56163574 8.59280762 6.14670898 9.23022461 6.74951172 C9.87612549 7.36842285 10.52202637 7.98733398 11.1875 8.625 C12.52527159 9.89143894 13.86381118 11.15706714 15.203125 12.421875 C16.17475586 13.34129883 16.17475586 13.34129883 17.16601562 14.27929688 C20.70561834 17.60026598 24.34313553 20.80891501 28 24 C24.38894598 24 23.95936837 23.39177713 21.375 21.0234375 C20.67117187 20.38374023 19.96734375 19.74404297 19.2421875 19.08496094 C18.50226562 18.39692383 17.76234375 17.70888672 17 17 C16.26007812 16.31969727 15.52015625 15.63939453 14.7578125 14.93847656 C12.493808 12.84583919 10.2451436 10.73784745 8 8.625 C6.83791016 7.54025391 6.83791016 7.54025391 5.65234375 6.43359375 C4.92144531 5.74652344 4.19054687 5.05945312 3.4375 4.3515625 C2.77621094 3.73104004 2.11492188 3.11051758 1.43359375 2.47119141 C0 1 0 1 0 0 Z " fill="#45CA89" transform="translate(11,35)"/>
<path d="M0 0 C0.66 0.33 1.32 0.66 2 1 C2 9.58 2 18.16 2 27 C-1 24 -1 24 -1.2487793 21.45629883 C-1.19117432 20.46654053 -1.13356934 19.47678223 -1.07421875 18.45703125 C-1.01943359 17.38388672 -0.96464844 16.31074219 -0.90820312 15.20507812 C-0.83537109 14.08552734 -0.76253906 12.96597656 -0.6875 11.8125 C-0.62626953 10.68134766 -0.56503906 9.55019531 -0.50195312 8.38476562 C-0.34858501 5.58874697 -0.18072046 2.79436237 0 0 Z " fill="#07934C" transform="translate(16,41)"/>
<path d="M0 0 C1.32 1.32 2.64 2.64 4 4 C3.67 4.33 3.34 4.66 3 5 C2.84344973 6.48638992 2.74933057 7.97949127 2.68359375 9.47265625 C2.64169922 10.37177734 2.59980469 11.27089844 2.55664062 12.19726562 C2.51732422 13.14279297 2.47800781 14.08832031 2.4375 15.0625 C2.39431641 16.01189453 2.35113281 16.96128906 2.30664062 17.93945312 C2.20020724 20.29281353 2.09818992 22.64628354 2 25 C1.34 24.67 0.68 24.34 0 24 C0 16.08 0 8.16 0 0 Z " fill="#06974F" transform="translate(155,91)"/>
<path d="M0 0 C0.99 0.33 1.98 0.66 3 1 C2.67 8.26 2.34 15.52 2 23 C-1 20 -1 20 -1.2487793 17.82348633 C-1.19117432 17.00130615 -1.13356934 16.17912598 -1.07421875 15.33203125 C-1.01943359 14.43935547 -0.96464844 13.54667969 -0.90820312 12.62695312 C-0.83537109 11.69818359 -0.76253906 10.76941406 -0.6875 9.8125 C-0.62626953 8.87212891 -0.56503906 7.93175781 -0.50195312 6.96289062 C-0.34870489 4.64059043 -0.1808714 2.32028542 0 0 Z " fill="#04BF63" transform="translate(9,35)"/>
<path d="M0 0 C1.32 1.32 2.64 2.64 4 4 C3.67 4.33 3.34 4.66 3 5 C2.76298761 7.85877909 2.57780818 10.69883297 2.4375 13.5625 C2.39431641 14.36880859 2.35113281 15.17511719 2.30664062 16.00585938 C2.20024738 18.00368805 2.09959112 20.0018207 2 22 C1.34 21.67 0.68 21.34 0 21 C0 14.07 0 7.14 0 0 Z " fill="#04CB69" transform="translate(163,102)"/>
<path d="M0 0 C2.03833424 1.2739589 4.03852126 2.61061923 6 4 C6 4.66 6 5.32 6 6 C6.85851562 6.36738281 6.85851562 6.36738281 7.734375 6.7421875 C10.38024402 8.21110099 12.14853139 9.95348244 14.25 12.125 C14.95640625 12.84945312 15.6628125 13.57390625 16.390625 14.3203125 C17.18726563 15.15175781 17.18726563 15.15175781 18 16 C17.67 16.66 17.34 17.32 17 18 C14.91570199 16.0843735 12.83253697 14.16753939 10.75 12.25 C10.16347656 11.71117188 9.57695313 11.17234375 8.97265625 10.6171875 C1.97142102 4.16661122 1.97142102 4.16661122 0 2 C0 1.34 0 0.68 0 0 Z " fill="#255A3D" transform="translate(95,112)"/>
<path d="M0 0 C0.66 0 1.32 0 2 0 C4.32749345 3.49124017 4.50299316 4.89222251 4 9 C2.68 10.32 1.36 11.64 0 13 C0 8.71 0 4.42 0 0 Z " fill="#02ED7B" transform="translate(168,109)"/>
<path d="M0 0 C4.12417063 1.6616804 7.06554039 4.62338018 10.25 7.625 C10.80429688 8.140625 11.35859375 8.65625 11.9296875 9.1875 C13.2902712 10.45425035 14.64565837 11.72657815 16 13 C15.67 13.66 15.34 14.32 15 15 C9.59947495 10.28109462 4.38185495 5.69641143 0 0 Z " fill="#2A6144" transform="translate(119,83)"/>
<path d="M0 0 C5.66129431 4.69766975 10.85228904 9.74723372 16 15 C15.67 15.66 15.34 16.32 15 17 C9.66666667 11.66666667 4.33333333 6.33333333 -1 1 C-0.67 0.67 -0.34 0.34 0 0 Z " fill="#99C0AC" transform="translate(66,85)"/>
<path d="M0 0 C7.03051093 3.19426332 12.3156261 8.99814594 17 15 C14.18763616 13.7080083 12.03181101 12.31751572 9.765625 10.21484375 C8.90517578 9.41916992 8.90517578 9.41916992 8.02734375 8.60742188 C7.44082031 8.05634766 6.85429688 7.50527344 6.25 6.9375 C5.64800781 6.38255859 5.04601562 5.82761719 4.42578125 5.25585938 C2.92768667 3.86137451 1.46087426 2.43343009 0 1 C0 0.67 0 0.34 0 0 Z " fill="#90BAA5" transform="translate(92,58)"/>
<path d="M0 0 C4.66666667 4 9.33333333 8 14 12 C13.67 12.99 13.34 13.98 13 15 C10.82722286 12.88094537 8.66173092 10.75527122 6.5 8.625 C5.87996094 8.02171875 5.25992188 7.4184375 4.62109375 6.796875 C4.03457031 6.21679688 3.44804688 5.63671875 2.84375 5.0390625 C2.29912109 4.50490723 1.75449219 3.97075195 1.19335938 3.42041016 C0 2 0 2 0 0 Z " fill="#8CE2B9" transform="translate(59,26)"/>
<path d="M0 0 C0.33 0.66 0.66 1.32 1 2 C0.34 1.67 -0.32 1.34 -1 1 C-0.67 0.67 -0.34 0.34 0 0 Z M-3 3 C-2.67 3 -2.34 3 -2 3 C-1.71428571 10.42857143 -1.71428571 10.42857143 -4 14 C-4.66 14 -5.32 14 -6 14 C-6.32434322 9.35108046 -5.776422 6.77593392 -3 3 Z " fill="#02F07C" transform="translate(6,30)"/>
<path d="M0 0 C3.71045247 1.57780923 6.29906384 3.90703248 9.25 6.625 C10.14203125 7.44226562 11.0340625 8.25953125 11.953125 9.1015625 C12.96632813 10.04128906 12.96632813 10.04128906 14 11 C10.30159372 11 9.68584567 10.17133056 7 7.75 C6.319375 7.14671875 5.63875 6.5434375 4.9375 5.921875 C3.06284066 4.06233388 1.52358081 2.15205789 0 0 Z " fill="#1CE281" transform="translate(11,35)"/>
<path d="M0 0 C5.32697239 1.45281065 8.36402802 5.08111378 12 9 C8.0557333 9 7.17603973 7.68625863 4.3125 5.0625 C3.50425781 4.33160156 2.69601563 3.60070312 1.86328125 2.84765625 C1.24839844 2.23792969 0.63351563 1.62820312 0 1 C0 0.67 0 0.34 0 0 Z " fill="#5B8E73" transform="translate(108,73)"/>
<path d="M0 0 C1.32176485 0.90325616 2.63215066 1.82317903 3.9375 2.75 C4.66839844 3.26046875 5.39929687 3.7709375 6.15234375 4.296875 C8.20805399 6.19177915 8.62669176 7.27425729 9 10 C7.86800647 9.0919838 6.74467637 8.17316174 5.625 7.25 C4.99851562 6.73953125 4.37203125 6.2290625 3.7265625 5.703125 C1.91687682 3.91800519 0.99882545 2.32050356 0 0 Z " fill="#55E29E" transform="translate(50,18)"/>
</svg>
